<?xml version="1.0" standalone="no"?><!DOCTYPE svg PUBLIC "-//W3C//DTD SVG 1.1//EN" "http://www.w3.org/Graphics/SVG/1.1/DTD/svg11.dtd"><svg t="1694420823878" class="icon" viewBox="0 0 1024 1024" version="1.1" xmlns="http://www.w3.org/2000/svg" p-id="4086" xmlns:xlink="http://www.w3.org/1999/xlink" width="200" height="200"><path d="M1012.936 721.888l-35.288-11.872 19.4-31.776c-8.784-6.96-20.544-11.416-33.832-13.384A460.992 460.992 0 0 0 981.6 536c0-254.752-206.52-461.264-461.264-461.264S59.064 281.248 59.064 536s206.52 461.264 461.264 461.264c124.4 0 237.216-49.336 320.184-129.4 1.792 2.296 3.52 4.616 5.504 6.848 25.272 28.392 58.576 42.336 84.208 37.784l-2-37.176 36.696 6.296c7.496-24.928-2.48-59.624-27.752-88.024a131.312 131.312 0 0 0-3.184-3.456 138.424 138.424 0 0 0 12.744-3.936c35.728-13.008 60.976-38.808 66.208-64.312z" fill="#E6E7E8" p-id="4087"></path><path d="M480.328 496m-461.264 0a461.264 461.264 0 1 0 922.528 0 461.264 461.264 0 1 0-922.528 0Z" fill="#FFFFFF" p-id="4088"></path><path d="M480.328 527.152m-461.264 0a461.264 461.264 0 1 0 922.528 0 461.264 461.264 0 1 0-922.528 0Z" fill="#FA759E" p-id="4089"></path><path d="M332.488 428.008v79.712c2 0.528 4.008 1.016 5.984 1.608h373.776V428.008h-379.76zM639.144 728.624c-12.536-11.712-20.936-25.256-23.704-38.728l35.288-11.872-19.4-31.776c20.4-16.176 56.328-19.712 92.048-6.712 4.936 1.792 9.656 3.848 14.16 6.096a132.976 132.976 0 0 1 2.488-37.36H447.096a147.256 147.256 0 0 1 9.44 51.52c0 24.704-6.28 47.992-17.176 68.824h199.784zM378.52 305.424h297.568v43.352H378.52z" fill="#D4FBFF" p-id="4090"></path><path d="M712.248 509.328H450.352c18.944 12.08 31.568 33.232 31.568 57.32a67.52 67.52 0 0 1-15.264 42.68H715.84c8.232 0.312 16.176 0.296 23.984 0.136 5.056-24.984 17.144-45.288 32.808-56.12-36.808-19.76-60.384-44.016-60.384-44.016zM676.088 348.776H372.84s-63.384 68.136-141.024 52.288c0 0 57.048 30.104 141.024 26.936h303.256c83.984 3.168 141.024-26.936 141.024-26.936-77.648 15.848-141.032-52.288-141.032-52.288zM524.344 179.184S333.256 295.352 264.208 281.256c0 0 50.728 26.776 125.416 23.952h269.672c74.688 2.816 125.416-23.952 125.416-23.952-69.048 14.096-260.368-102.072-260.368-102.072z" fill="#0089EF" p-id="4091"></path><path d="M524.376 221.208S478.88 248.864 434.48 267.52h179.896c-44.448-18.656-90-46.312-90-46.312z" fill="#D4FBFF" p-id="4092"></path><path d="M691.208 761.592c1.048-1.176 2.104-2.328 3.184-3.456a138.424 138.424 0 0 1-12.744-3.936c-16.84-6.128-31.312-15.128-42.496-25.576H439.36a159.688 159.688 0 0 1-37.728 47.184H680.32c3.272-4.848 6.8-9.632 10.888-14.216zM420.192 449.832a17.592 17.592 0 1 0 0 35.184 17.592 17.592 0 0 0 0-35.184zM297.456 440.36a17.592 17.592 0 1 0 0 35.184 17.592 17.592 0 0 0 0-35.184zM745.752 439.688a17.592 17.592 0 1 0 0 35.184 17.592 17.592 0 0 0 0-35.184zM628.32 449.832a17.592 17.592 0 1 0 0 35.184 17.592 17.592 0 0 0 0-35.184z" fill="#0089EF" p-id="4093"></path><path d="M980.936 689.888l-35.288-11.872 19.4-31.776c-20.4-16.176-56.328-19.712-92.048-6.712-4.936 1.792-9.656 3.848-14.16 6.096 0.232-3.232 0.36-6.512 0.36-9.84 0-38.008-15.616-70.568-37.784-84.2l-23.224 29.104-23.224-29.104c-22.176 13.632-37.784 46.192-37.784 84.2 0 3.328 0.128 6.608 0.36 9.84a135.904 135.904 0 0 0-14.16-6.096c-35.72-13-71.648-9.464-92.048 6.712l19.4 31.776-35.288 11.872c5.232 25.496 30.48 51.304 66.2 64.304 4.256 1.552 8.512 2.856 12.744 3.936-1.072 1.128-2.136 2.28-3.184 3.456-25.272 28.392-35.248 63.096-27.752 88.024l36.696-6.296-2 37.176c25.632 4.552 58.936-9.384 84.208-37.784a133.552 133.552 0 0 0 15.832-21.848 133.08 133.08 0 0 0 15.832 21.848c25.272 28.392 58.576 42.336 84.208 37.784l-2-37.176 36.696 6.296c7.496-24.928-2.48-59.624-27.752-88.024a131.312 131.312 0 0 0-3.184-3.456 138.424 138.424 0 0 0 12.744-3.936c35.72-13 60.968-38.8 66.2-64.304z" fill="#FFD7E5" p-id="4094"></path><path d="M866.656 704.128a11.016 11.016 0 0 0-13.496-7.792 10.96 10.96 0 0 0-6.504 4.872l-37.152 9.952a15.92 15.92 0 0 0-3.312-2.464v-41.616c1.856-1.976 3.016-4.616 3.016-7.544a11.024 11.024 0 0 0-22.048 0c0 2.928 1.16 5.568 3.024 7.544v41.608c-1.2 0.696-2.336 1.496-3.312 2.472l-37.152-9.952a10.96 10.96 0 0 0-6.504-4.872 11.016 11.016 0 1 0-5.704 21.288c2.824 0.76 5.68 0.32 8.064-0.968l37.224 9.976c0.192 0.712 0.376 1.44 0.664 2.104l-23.16 30.776c-2.656 0.464-5.168 1.84-6.92 4.168a11.024 11.024 0 0 0 17.616 13.248c1.752-2.328 2.376-5.12 2.088-7.8l23.208-30.848c0.624 0.072 1.24 0.192 1.888 0.192s1.264-0.112 1.888-0.192l23.208 30.856c-0.288 2.68 0.336 5.472 2.088 7.8a11.024 11.024 0 0 0 17.616-13.248 10.928 10.928 0 0 0-6.92-4.168l-23.152-30.776c0.288-0.672 0.472-1.392 0.664-2.104l37.224-9.976c2.392 1.288 5.24 1.728 8.064 0.968a11.024 11.024 0 0 0 7.792-13.504z" fill="#FA759E" p-id="4095"></path><path d="M130.184 595.384c11.568-24.008 29.4-44.792 51.576-60.688a39.616 39.616 0 0 0-23.84-8.048 40 40 0 0 0-40 40c0 11.304 4.728 21.464 12.264 28.736zM441.656 595.384a39.8 39.8 0 0 0 12.264-28.736 40 40 0 0 0-40-40 39.616 39.616 0 0 0-23.84 8.048c22.168 15.896 40 36.68 51.576 60.688z" fill="#FFFFFF" p-id="4096"></path><path d="M115.304 659.792a170.616 158.192 0 1 0 341.232 0 170.616 158.192 0 1 0-341.232 0Z" fill="#FFFFFF" p-id="4097"></path><path d="M397.92 704.944c-8.504 0-15.4 4.912-15.4 10.968s6.896 10.968 15.4 10.968c8.504 0 15.4-4.912 15.4-10.968s-6.896-10.968-15.4-10.968zM173.92 704.944c-8.504 0-15.4 4.912-15.4 10.968s6.896 10.968 15.4 10.968c8.504 0 15.4-4.912 15.4-10.968s-6.896-10.968-15.4-10.968z" fill="#FFD7E5" p-id="4098"></path><path d="M138.584 793.776a8 8 0 0 0-12.056 10.52 472.832 472.832 0 0 0 58.664 56.568 7.976 7.976 0 0 0 11.256-1.184 8.008 8.008 0 0 0-1.184-11.256 457.92 457.92 0 0 1-56.68-54.648zM434.48 275.52h179.888a7.984 7.984 0 0 0 3.088-15.376c-43.36-18.2-88.488-45.504-88.936-45.776a8 8 0 0 0-8.304 0c-0.456 0.272-45.488 27.56-88.84 45.768a8 8 0 0 0 3.104 15.384z m89.896-44.992c8.552 5.048 29.192 16.952 53.48 28.992H470.96a862.208 862.208 0 0 0 53.416-28.992z" fill="#3A2C60" p-id="4099"></path><path d="M983.488 682.312l-25.792-8.672 14.176-23.224a8 8 0 0 0-1.856-10.44c-10.232-8.112-23.648-13.072-38.544-15.136A467.376 467.376 0 0 0 949.6 496c0-258.752-210.504-469.264-469.264-469.264S11.064 237.248 11.064 496c0 102.44 32.424 199.776 93.76 281.488a8 8 0 0 0 12.792-9.608C58.376 688.968 27.064 594.952 27.064 496c0-249.928 203.336-453.264 453.264-453.264S933.592 246.072 933.592 496c0 44.36-6.504 87.216-18.44 127.768a135.44 135.44 0 0 0-47.984 9.416 136.92 136.92 0 0 0-5.616-36.248c21.888-7.296 34.784-13.88 36.008-14.536a8 8 0 0 0-5.336-14.912c-14.6 2.984-28.88 3.36-42.632 2.024-6.528-10.464-14.64-18.992-23.992-24.744a8 8 0 0 0-10.44 1.824l-9.992 12.512a220.936 220.936 0 0 1-21.248-9.112l-2.72-3.4a7.888 7.888 0 0 0-8.536-2.552c-27.008-15.096-46.16-32.16-52.432-38.096v-47.816a25.576 25.576 0 0 0 25.504 24.744 25.624 25.624 0 0 0 25.592-25.592 25.536 25.536 0 0 0-17.592-24.184v-3.216c40.632-8.032 65.536-20.912 67.096-21.736a8 8 0 0 0-5.336-14.912c-64.648 13.224-120.08-36.688-131.424-47.752v-32.424c61.96-2.848 102.456-23.72 104.36-24.728a8 8 0 0 0-5.336-14.912C723.128 285.688 559.224 190.56 532.344 174.64v-21.696a8 8 0 1 0-16 0v21.704c-26.824 15.92-190.432 111.032-250.536 98.776a8 8 0 1 0-5.336 14.912c1.96 1.04 45 23.24 110.04 24.936v28a7.864 7.864 0 0 0-3.528 2.064c-0.608 0.648-61.36 64.648-133.576 49.904a8 8 0 1 0-5.336 14.912c1.488 0.784 24.216 12.496 61.376 20.544v5.08c-10.184 3.384-17.592 12.888-17.592 24.184 0 14.112 11.48 25.592 25.592 25.592s25.592-11.48 25.592-25.592a25.52 25.52 0 0 0-17.592-24.184v-2.016c6.04 1 12.424 1.84 19.032 2.544v63.248a191.072 191.072 0 0 0-38.576-3.944c-30.904 0-59.992 7.344-85.376 20.248a67.488 67.488 0 0 0-42.624-15.208c-37.496 0-68 30.504-68 68a67.84 67.84 0 0 0 23.2 51.064 155.12 155.12 0 0 0-5.816 42.088c0 91.64 80.128 166.192 178.616 166.192 45.552 0 87.16-15.968 118.744-42.184H666.08c-12.272 23.264-16.352 47.976-10.304 68.112 1.168 3.872 5.072 6.256 9.016 5.576l26.824-4.6-1.472 27.168c-0.208 4.032 2.616 7.6 6.592 8.304 2.792 0.496 5.656 0.744 8.552 0.864a450.168 450.168 0 0 1-224.976 60.04c-91.224 0-179.168-26.976-254.32-78.016a8 8 0 0 0-8.992 13.232c77.816 52.848 168.864 80.784 263.312 80.784 104.672 0 201.336-34.584 279.456-92.76a135.504 135.504 0 0 0 20.528-16.232 477.2 477.2 0 0 0 20.136-17.784c2.424 3.24 4.872 6.472 7.592 9.528 23.096 25.952 53.456 41.32 80.232 41.32 3.864 0 7.664-0.32 11.344-0.976a8 8 0 0 0 6.592-8.304l-1.464-27.168 26.824 4.6c3.92 0.68 7.84-1.704 9.016-5.576 7.984-26.544-1.584-61.08-24.448-89.728l1.328-0.48c37.352-13.592 65.344-41.152 71.304-70.208a7.96 7.96 0 0 0-5.264-9.192zM297.456 467.552c-5.288 0-9.592-4.304-9.592-9.592s4.304-9.592 9.592-9.592 9.592 4.304 9.592 9.592-4.304 9.592-9.592 9.592z m327.048 182.856l14.176 23.224-25.792 8.672a7.992 7.992 0 0 0-5.288 9.184c2.064 10.064 6.824 19.936 13.648 29.128h-49.432V659.84a8 8 0 0 0-8-8h-67.56a8 8 0 0 0-8 8v60.776h-36.168c8-18.856 12.448-39.36 12.448-60.832 0-14.536-2.032-28.64-5.816-42.088l0.392-0.376h256.416c5.104 0.184 9.968 0.12 14.896 0.112a141.04 141.04 0 0 0-1.224 15.744c-1.024-0.4-2.056-0.792-3.088-1.168-37.384-13.608-76.528-10.472-99.752 7.96a8 8 0 0 0-1.856 10.44z m-68.688 70.216h-51.56V667.84h51.56v52.784z m-158.12-190.32c4.96-2.264 10.4-3.656 16.216-3.656a40 40 0 0 1 40 40c0 3.808-0.712 7.408-1.704 10.888a39.96 39.96 0 0 1-3.408 8.216c-0.128 0.232-0.248 0.456-0.384 0.68-0.384 0.672-0.824 1.304-1.248 1.944-11.64-22.656-28.648-42.48-49.472-58.072z m335.84 71.2c-5.792 0.064-11.656 0.056-17.712-0.176H472.256c1.496-2.504 2.84-5.096 4.008-7.792h259.504a129.28 129.28 0 0 0-2.232 7.968z m8.872-23.968H480.936c0.576-3.56 0.976-7.168 0.976-10.888a67.736 67.736 0 0 0-21.328-49.32h248.36c6.344 6.12 24.232 22.256 49.68 37.4a89.392 89.392 0 0 0-16.216 22.808z m3.344-110.664c-5.288 0-9.592-4.304-9.592-9.592s4.304-9.592 9.592-9.592 9.592 4.304 9.592 9.592-4.304 9.592-9.592 9.592z m-8-33.776a25.496 25.496 0 0 0-17.504 23.336v-21.656a325.472 325.472 0 0 0 17.504-2.144v0.464zM386.52 313.424h281.568v27.352H386.52v-27.352z m137.824-124.912c24.24 14.44 142.928 83.48 220.536 98.84a283.744 283.744 0 0 1-85.584 9.856H389.32A282.616 282.616 0 0 1 304 287.352c77.568-15.344 196.12-84.392 220.344-98.84zM376.208 356.776H672.72c6.072 6.024 22.552 21.208 45.904 34.064H330.296c23.352-12.856 39.84-28.04 45.912-34.064zM290.96 406.768c0.128 0.008 0.24 0.072 0.368 0.072H758.24c3.96 1.032 7.984 1.976 12.128 2.68a320.48 320.48 0 0 1-72.088 10.48H349.776a318.432 318.432 0 0 1-71.168-10.488c4.216-0.72 8.312-1.688 12.352-2.744z m69.104 29.48c4.184 0 8.448-0.08 12.776-0.24h39.352v7.24c-10.184 3.384-17.592 12.888-17.592 24.184 0 14.112 11.48 25.592 25.592 25.592s25.592-11.48 25.592-25.592a25.52 25.52 0 0 0-17.592-24.184V436H620.32v7.24c-10.184 3.384-17.592 12.888-17.592 24.184 0 14.112 11.488 25.592 25.592 25.592s25.592-11.48 25.592-25.592a25.536 25.536 0 0 0-17.592-24.184V436h39.72c8 0.296 15.664 0.232 23.144 0h5.056v65.328H432.632a67.544 67.544 0 0 0-18.712-2.68c-6.464 0-12.688 0.984-18.608 2.68h-54.816V436h8.128c3.76 0.136 7.544 0.248 11.44 0.248z m60.128 21.584c5.288 0 9.592 4.304 9.592 9.592s-4.304 9.592-9.592 9.592-9.592-4.304-9.592-9.592 4.304-9.592 9.592-9.592z m208.128 0c5.288 0 9.592 4.304 9.592 9.592s-4.304 9.592-9.592 9.592-9.592-4.304-9.592-9.592 4.304-9.592 9.592-9.592z m-510.4 108.816a40 40 0 0 1 40-40c5.816 0 11.256 1.392 16.216 3.656-20.864 15.624-37.904 35.504-49.544 58.224a39.44 39.44 0 0 1-6.672-21.88z m5.384 93.144c0-82.816 72.952-150.192 162.616-150.192 89.664 0 162.616 67.376 162.616 150.192s-72.952 150.192-162.616 150.192c-89.672 0.008-162.616-67.376-162.616-150.192z m298.192 108.016a167.072 167.072 0 0 0 22.728-31.184h191.8c11.744 10.368 26.4 19.088 42.88 25.088l1.336 0.48c-1.456 1.832-2.704 3.744-4.056 5.616H421.496zM912 746.68c-3.288 1.192-6.704 2.192-10.136 3.128l-21.856-5.96a8 8 0 1 0-4.208 15.44l21.864 5.96c0.512 0.552 1.032 1.096 1.528 1.656 20.296 22.808 30.808 51.384 27.576 73.536l-26.432-4.536-14.736-16.56a8 8 0 0 0-11.952 10.64l14.728 16.552 1.44 26.784c-22.16 0.672-49.528-13.128-69.832-35.928a125.656 125.656 0 0 1-13.808-18.88v-22.6a8 8 0 1 0-16 0v22.592a124.488 124.488 0 0 1-13.808 18.88c-20.304 22.808-47.744 36.448-69.832 35.928l1.44-26.784 14.728-16.552a8 8 0 0 0-11.952-10.64l-14.736 16.56-26.432 4.536c-3.224-22.16 7.28-50.728 27.576-73.528 0.504-0.568 1.024-1.112 1.536-1.664l21.848-5.96a8 8 0 1 0-4.208-15.44l-21.856 5.96a129.44 129.44 0 0 1-10.128-3.128c-28.688-10.448-51.504-30.608-59.168-51.632l25.416-8.552 20.824 7.576a7.992 7.992 0 0 0 10.248-4.784 8 8 0 0 0-4.784-10.256l-20.824-7.576-13.968-22.888c19.392-11.176 49.832-11.96 78.504-1.52 4.096 1.496 8.16 3.288 12.152 5.232l16.72 16.704a7.976 7.976 0 0 0 11.312-0.008 8 8 0 0 0 0-11.32l-15.408-15.392c-0.112-2.144-0.232-4.288-0.232-6.48 0-30.528 11.152-58.856 28.288-73.256l16.728 20.96v22.168a8 8 0 1 0 16 0v-22.168l16.728-20.96c17.144 14.4 28.28 42.728 28.28 73.256 0 2.16-0.128 4.272-0.232 6.384l-15.44 15.424a8 8 0 0 0 11.312 11.328l16.592-16.576a128.944 128.944 0 0 1 12.304-5.296c28.688-10.44 59.128-9.656 78.512 1.52l-13.976 22.888-20.824 7.576a8 8 0 1 0 5.464 15.04l20.824-7.576 25.424 8.552c-7.632 21.04-30.448 41.2-59.128 51.64z" fill="#3A2C60" p-id="4100"></path><path d="M411.488 620.744c-6.4-13.096-17.688-24.672-30.968-31.752-14.856-7.92-29.752-9.008-41.928-3.056-12.176 5.952-20.472 18.368-23.344 34.96-2.568 14.824-0.376 30.84 6.024 43.936 6.408 13.112 17.048 23.24 29.952 28.504a50.4 50.4 0 0 0 19.04 3.832c7.04 0 13.968-1.568 20.392-4.712 24.872-12.16 34.216-44.328 20.832-71.712z m-46.864 33.376a16 16 0 1 1-0.008-31.992 16 16 0 0 1 0.008 31.992zM250.56 664.84c6.4-13.096 8.6-29.112 6.024-43.936-2.872-16.592-11.168-29.008-23.336-34.96-12.184-5.952-27.064-4.872-41.928 3.056-13.28 7.08-24.568 18.656-30.968 31.752-6.408 13.112-7.864 27.728-4.088 41.144 3.864 13.744 12.712 24.608 24.92 30.568a46.096 46.096 0 0 0 20.312 4.672c19.584-0.008 39.168-12.056 49.064-32.296z m-43.352-10.72a16 16 0 1 1-0.008-31.992 16 16 0 0 1 0.008 31.992zM326.256 716.496a8 8 0 0 0-8 8v2.832c0 6.712-5.464 12.168-12.168 12.168s-12.168-5.464-12.168-12.168v-10.256c8.28-3.88 14.176-12.784 14.176-17.744 0-6.44-9.928-11.664-22.176-11.664-12.248 0-22.176 5.224-22.176 11.664 0 4.952 5.896 13.864 14.168 17.744v10.256c0 6.712-5.456 12.168-12.168 12.168s-12.168-5.464-12.168-12.168v-2.832a8 8 0 0 0-16 0v2.832a28.2 28.2 0 0 0 28.168 28.168c7.912 0 15.048-3.304 20.168-8.576a28.04 28.04 0 0 0 20.168 8.576 28.2 28.2 0 0 0 28.168-28.168v-2.832a7.984 7.984 0 0 0-7.992-8z" fill="#3A2C60" p-id="4101"></path></svg>